<?xml version="1.0" standalone="no"?>
<!DOCTYPE svg PUBLIC "-//W3C//DTD SVG 20010904//EN"
 "http://www.w3.org/TR/2001/REC-SVG-20010904/DTD/svg10.dtd">
<svg version="1.0" xmlns="http://www.w3.org/2000/svg"
 width="260.000000pt" height="260.000000pt" viewBox="0 0 260.000000 260.000000"
 preserveAspectRatio="xMidYMid meet">

<g transform="translate(0.000000,260.000000) scale(0.100000,-0.100000)"
fill="#000000" stroke="none">
<path d="M682 1999 c-26 -13 -55 -39 -70 -62 -26 -38 -27 -48 -30 -183 l-3
-142 132 -77 c79 -45 140 -74 151 -72 10 3 133 71 274 152 l257 148 43 -22
c75 -36 66 -46 -143 -167 -104 -59 -237 -136 -297 -171 -61 -35 -121 -66 -135
-69 -19 -3 -60 16 -151 70 l-125 73 -3 -44 c-2 -25 -1 -51 1 -57 6 -16 249
-156 271 -156 9 0 131 65 270 145 140 80 265 145 277 145 31 0 84 -42 77 -61
-8 -19 -599 -359 -625 -359 -11 0 -75 32 -141 70 -66 39 -123 70 -126 70 -3 0
-6 -24 -6 -53 l0 -52 127 -74 c70 -40 136 -73 148 -73 11 0 134 66 273 146
140 80 260 146 269 146 26 0 83 -40 83 -58 0 -9 -15 -25 -33 -36 -17 -10 -153
-88 -302 -173 -148 -86 -280 -155 -292 -155 -12 0 -77 32 -144 71 -66 39 -123
71 -125 71 -2 0 -4 -60 -4 -132 0 -108 4 -141 19 -174 22 -47 59 -80 110 -95
24 -7 230 -9 612 -7 l575 3 41 27 c80 53 78 32 81 658 2 376 0 571 -8 606 -12
58 -62 114 -119 133 -24 8 -205 11 -600 11 -559 0 -567 0 -609 -21z"/>
</g>
</svg>
